<?xml version="1.0" encoding="UTF-8"?>
<svg width="1080px" height="899px" viewBox="0 0 1080 899" version="1.1" xmlns="http://www.w3.org/2000/svg" xmlns:xlink="http://www.w3.org/1999/xlink">
    <!-- Generator: Sketch 61.2 (89653) - https://sketch.com -->
    <title>Project 1 Copy</title>
    <desc>Created with Sketch.</desc>
    <g id="Project-1-Copy" stroke="none" stroke-width="1" fill="none" fill-rule="evenodd">
        <rect fill="#E8F8F8" x="0" y="0" width="1080" height="899"></rect>
        <path d="M69.0467775,58 L127.771986,89.4329016 L127.771986,190.187372 L172.294509,190.187372 L172.294509,89.299334 L226.077718,59.024018 C226.077718,59.024018 219.226404,150.141237 214.120095,240.036696 L828.908968,990.618768 L213.821535,245.32731 C213.199793,256.418745 212.607237,267.463909 212.060059,278.288882 L716.185968,958.151626 L211.771581,284.061464 C211.001856,299.646743 210.333756,314.703077 209.816745,328.699123 L588.193509,919.899808 L209.586119,335.16647 C209.006212,352.058513 208.669411,367.200562 208.669411,379.586187 C208.669411,384.280659 209.099619,389.94483 209.914697,396.463472 L477.398734,893.165227 L211.416077,406.841788 C232.176526,535.177926 363.607793,907 363.607793,907 L363.607793,907 L271.223557,907 L173.274005,430.608999 L129.686454,430.608999 L33.3842362,907 L-59,907 C-59,907 70.1630502,532.851634 90.1487004,405.932513 L-166.420011,908.434685 L91.6860817,394.855396 C92.3721471,388.991055 92.73276,383.870763 92.73276,379.586187 C92.73276,367.338424 92.2727671,352.258938 91.4809881,335.374829 L-258.088877,919.899808 L91.156998,328.727384 C90.4719195,315.164186 89.5938754,300.577568 88.584282,285.459554 L-365.079316,940.953942 L88.1889107,279.609397 C87.4488398,268.784634 86.646433,257.723857 85.803671,246.603156 L-495,978.476161 L85.4038451,241.36174 C78.4471908,150.749566 69.0467775,58 69.0467775,58 L69.0467775,58 Z M172.294509,359.372961 L127.771986,359.372961 L127.771986,399.443232 L172.294509,399.443232 L172.294509,359.372961 Z M172.294509,288.136924 L127.771986,288.136924 L127.771986,332.659447 L172.294509,332.659447 L172.294509,288.136924 Z M172.294509,216.900886 L127.771986,216.900886 L127.771986,261.42341 L172.294509,261.42341 L172.294509,216.900886 Z" id="Combined-Shape" fill="#FFFFFF"></path>
        <g id="Group" transform="translate(312.500000, 382.500000)">
            <path d="M80.4023515,38.9889521 C92.3390715,38.9889521 101.72075,41.6726233 108.546466,47.0399658 C115.373103,52.4091438 118.785961,60.9695411 118.785961,72.7220753 L118.785961,131.882158 L93.8825891,131.882158 L93.8825891,120.948308 C87.7784695,129.538993 78.6508226,133.8325 66.4987281,133.8325 C57.4566788,133.8325 50.0290182,131.572856 44.2139054,127.051733 C38.3960315,122.531527 35.4884751,115.75076 35.4884751,106.709432 C35.4884751,101.511884 36.6445026,97.0192123 38.9565575,93.2332534 C41.2676921,89.4482123 44.5783854,86.4249521 48.8886375,84.1634726 C53.1970489,81.9047466 58.1782755,80.237089 63.8304767,79.1632534 C69.4817575,78.0903356 75.9319491,77.5525 83.1819717,77.5525 L93.5420396,77.5525 L93.5420396,73.8473082 C93.5420396,68.0458425 92.4532016,63.7651849 90.2782868,61.008089 C88.1024517,58.2509932 84.2735709,56.8724452 78.790724,56.8724452 C69.635465,56.8724452 64.4922472,61.2797603 63.3610707,70.0943904 L39.0458367,70.0943904 C39.5667854,63.1438288 41.7140881,57.2955548 45.488665,52.5495685 C49.2623216,47.8026644 54.0944428,44.3572123 59.9859491,42.2086233 C65.8756145,40.0627877 72.6801616,38.9889521 80.4023515,38.9889521 Z M187.301482,39.7511918 L187.301482,61.9575616 L186.451029,61.9575616 C177.156789,61.9575616 170.101892,63.7399452 165.287258,67.3028767 C160.356654,70.9823699 157.891812,77.0747808 157.891812,85.582863 L157.891812,131.882616 L132.64789,131.882616 L132.64789,41.1077123 L157.891812,41.1077123 L157.891812,57.5474932 C160.838025,51.6423151 164.662304,47.2138904 169.36741,44.2603836 C174.069754,41.3077945 180.046858,39.8053425 187.301482,39.7511918 Z M222.072046,3.60983574e-13 L222.072046,79.5023836 L251.311441,41.1077123 L278.085075,41.1077123 L245.0214,82.3833836 L280.720191,131.882616 L252.160974,131.882616 L222.072046,88.995274 L222.072046,131.882616 L196.828124,131.882616 L196.828124,3.60983574e-13 L222.072046,3.60983574e-13 Z M93.5420396,92.4705548 L83.8777971,92.4705548 C76.1905826,92.4705548 70.4113656,93.4315 66.5401462,95.3533904 C62.6689268,97.274363 60.7333171,100.547267 60.7333171,105.170267 C60.7333171,108.568911 61.8212347,111.214034 63.9961495,113.107473 C66.1719846,115.000911 69.4937228,115.948089 73.9586028,115.948089 C79.6660283,115.948089 84.3573276,114.500705 88.0306602,111.605021 C91.7039927,108.7075 93.5420396,104.837103 93.5420396,99.9892397 L93.5420396,92.4705548 Z" id="Combined-Shape" fill="#000000"></path>
            <path d="M368.804147,102.483475 L368.804147,133.380571 L362.886869,133.380571 L362.886869,129.894736 C362.313457,131.019051 361.402257,131.957968 360.151428,132.708736 C358.900599,133.461338 357.516311,133.83764 355.998565,133.83764 C353.334916,133.83764 351.147115,132.893215 349.434244,131.006201 C347.722292,129.11827 346.865396,126.465804 346.865396,123.047886 L346.865396,122.711051 C346.865396,119.293133 347.736098,116.587434 349.473821,114.593955 C351.213385,112.600475 353.434319,111.602818 356.138467,111.602818 C359.305577,111.602818 361.555044,112.833599 362.886869,115.296078 L362.886869,102.483475 L368.804147,102.483475 Z M445.057504,111.603093 C450.574406,111.603093 453.576764,113.802162 454.066419,118.199381 L448.434467,118.199381 C448.275237,117.367847 447.931006,116.758422 447.401773,116.37386 C446.871621,115.988381 446.104004,115.795641 445.097082,115.795641 C444.157349,115.795641 443.418265,115.994805 442.88259,116.392216 C442.345994,116.78871 442.077236,117.313696 442.077236,117.964422 C442.077236,118.615148 442.368084,119.096997 442.95162,119.40997 C443.534236,119.722942 444.61387,119.995532 446.190522,120.229573 C447.619909,120.438833 448.8284,120.682052 449.815073,120.961984 C450.801746,121.242833 451.684413,121.626477 452.464916,122.114751 C453.244498,122.603025 453.813308,123.231723 454.172266,123.999929 C454.530303,124.768134 454.710702,125.698792 454.710702,126.792819 C454.710702,129.081833 453.906269,130.827504 452.299243,132.031668 C450.691298,133.234915 448.422502,133.836997 445.494696,133.836997 C442.598185,133.836997 440.343195,133.222066 438.729727,131.989449 C437.115338,130.757751 436.262123,128.995559 436.169163,126.703792 L441.688826,126.703792 C441.822284,127.684011 442.172038,128.420093 442.740847,128.909285 C443.307816,129.400312 444.212573,129.644449 445.455119,129.644449 C447.679735,129.644449 448.792504,128.883586 448.792504,127.360025 C448.792504,126.656066 448.467601,126.125573 447.818716,125.76671 C447.169832,125.409682 446.057063,125.114148 444.481331,124.879189 C441.496461,124.448737 439.363885,123.758545 438.081762,122.808614 C436.80056,121.857764 436.159038,120.373668 436.159038,118.35449 C436.159038,117.263216 436.404786,116.280244 436.894441,115.402819 C437.383175,114.52723 438.048628,113.820518 438.887116,113.280847 C439.726524,112.742093 440.671779,112.328162 441.72104,112.038134 C442.7703,111.748107 443.882148,111.603093 445.057504,111.603093 Z M426.206249,111.603093 C431.723151,111.603093 434.725509,113.802162 435.215164,118.199381 L429.583211,118.199381 C429.423982,117.367847 429.07975,116.758422 428.550518,116.37386 C428.020365,115.988381 427.252748,115.795641 426.245826,115.795641 C425.306094,115.795641 424.567009,115.994805 424.031334,116.392216 C423.494739,116.78871 423.225981,117.313696 423.225981,117.964422 C423.225981,118.615148 423.516828,119.096997 424.100365,119.40997 C424.68298,119.722942 425.762614,119.995532 427.339266,120.229573 C428.768654,120.438833 429.977144,120.682052 430.963818,120.961984 C431.950491,121.242833 432.833158,121.626477 433.613661,122.114751 C434.393243,122.603025 434.962053,123.231723 435.32101,123.999929 C435.679047,124.768134 435.859447,125.698792 435.859447,126.792819 C435.859447,129.081833 435.055013,130.827504 433.447988,132.031668 C431.840042,133.234915 429.571246,133.836997 426.643441,133.836997 C423.746929,133.836997 421.49194,133.222066 419.878471,131.989449 C418.264083,130.757751 417.410868,128.995559 417.317907,126.703792 L422.83757,126.703792 C422.971029,127.684011 423.320782,128.420093 423.889592,128.909285 C424.456561,129.400312 425.361318,129.644449 426.603864,129.644449 C428.82848,129.644449 429.941249,128.883586 429.941249,127.360025 C429.941249,126.656066 429.616346,126.125573 428.967461,125.76671 C428.318576,125.409682 427.205808,125.114148 425.630076,124.879189 C422.645206,124.448737 420.51263,123.758545 419.230507,122.808614 C417.949304,121.857764 417.307783,120.373668 417.307783,118.35449 C417.307783,117.263216 417.553531,116.280244 418.043186,115.402819 C418.53192,114.52723 419.197372,113.820518 420.03586,113.280847 C420.875269,112.742093 421.820524,112.328162 422.869784,112.038134 C423.919045,111.748107 425.030893,111.603093 426.206249,111.603093 Z M405.520352,111.602818 C406.965387,111.602818 408.309177,111.815749 409.549881,112.239777 C410.792427,112.662886 411.909797,113.298927 412.901993,114.146982 C413.894188,114.995037 414.677452,116.127612 415.250864,117.544708 C415.824276,118.961804 416.111442,120.590914 416.111442,122.432037 L416.111442,124.061147 L400.54925,124.061147 C400.629325,125.837105 401.131866,127.211064 402.056872,128.184859 C402.981878,129.157736 404.250195,129.644174 405.860902,129.644174 C408.429749,129.644174 409.913441,128.651105 410.312896,126.664051 L416.070944,126.664051 C415.72027,128.955818 414.646158,130.724434 412.85045,131.9699 C411.054742,133.214448 408.671816,133.83764 405.700751,133.83764 C402.426874,133.83764 399.764145,132.866599 397.710724,130.926352 C395.658223,128.986105 394.631052,126.346489 394.631052,123.008421 L394.631052,122.670667 C394.631052,119.372064 395.663745,116.703078 397.730052,114.66279 C399.79636,112.624338 402.392819,111.602818 405.520352,111.602818 Z M299.758197,102.4631 L299.758197,121.101032 L306.612446,112.100086 L312.88776,112.100086 L305.137958,121.776538 L313.505351,133.380388 L306.812173,133.380388 L299.758197,123.326716 L299.758197,133.380388 L293.839999,133.380388 L293.839999,102.4631 L299.758197,102.4631 Z M320.799553,112.100086 L320.799553,133.380388 L314.881355,133.380388 L314.881355,112.100086 L320.799553,112.100086 Z M337.519705,111.602634 C339.724073,111.602634 341.474681,112.289155 342.76969,113.66036 C344.064698,115.030648 344.711742,117.087456 344.711742,119.828949 L344.711742,133.380388 L338.794465,133.380388 L338.794465,120.668744 C338.794465,119.210347 338.492572,118.13284 337.887867,117.436223 C337.283161,116.740525 336.330543,116.391758 335.029092,116.391758 C333.713835,116.391758 332.644325,116.796511 331.820563,117.606018 C330.996802,118.414607 330.585381,119.574716 330.585381,121.086347 L330.585381,133.380388 L324.667183,133.380388 L324.667183,112.100086 L330.585381,112.100086 L330.585381,115.462936 C331.156032,114.327607 332.036858,113.400621 333.2251,112.681977 C334.414262,111.963333 335.846411,111.602634 337.519705,111.602634 Z M385.325031,111.602634 C387.529399,111.602634 389.280007,112.289155 390.575016,113.66036 C391.870024,115.030648 392.517068,117.087456 392.517068,119.828949 L392.517068,133.380388 L386.599791,133.380388 L386.599791,120.668744 C386.599791,119.210347 386.297898,118.13284 385.693193,117.436223 C385.088487,116.740525 384.135869,116.391758 382.834418,116.391758 C381.51916,116.391758 380.449651,116.796511 379.625889,117.606018 C378.802127,118.414607 378.390707,119.574716 378.390707,121.086347 L378.390707,133.380388 L372.472509,133.380388 L372.472509,112.100086 L378.390707,112.100086 L378.390707,115.462936 C378.961357,114.327607 379.842184,113.400621 381.030426,112.681977 C382.219588,111.963333 383.651736,111.602634 385.325031,111.602634 Z M357.935095,116.153311 C356.271005,116.153311 354.996245,116.704914 354.110816,117.808119 C353.226308,118.910407 352.783594,120.518407 352.783594,122.631201 L352.783594,122.968955 C352.783594,125.028516 353.236433,126.597051 354.14211,127.672722 C355.046867,128.749311 356.257199,129.287147 357.775865,129.287147 C359.385652,129.287147 360.665934,128.74564 361.618552,127.662626 C362.57025,126.58053 363.045178,124.989051 363.045178,122.890023 L363.045178,122.551352 C363.045178,120.452325 362.603385,118.859927 361.717956,117.777832 C360.832527,116.694818 359.572494,116.153311 357.935095,116.153311 Z M405.520352,115.796284 C404.189448,115.796284 403.098769,116.202873 402.246475,117.016968 C401.394181,117.829229 400.854824,118.972818 400.629325,120.444982 L410.194164,120.444982 C409.993516,117.345544 408.436192,115.796284 405.520352,115.796284 Z M317.811002,102.781579 C318.772824,102.781579 319.581859,103.089045 320.236266,103.705812 C320.891594,104.321662 321.218337,105.086196 321.218337,106.000333 C321.218337,106.91447 320.891594,107.676251 320.236266,108.284758 C319.581859,108.894182 318.772824,109.198895 317.811002,109.198895 C316.89612,109.198895 316.125742,108.894182 315.500787,108.284758 C314.874913,107.676251 314.563816,106.91447 314.563816,106.000333 C314.563816,105.086196 314.874913,104.321662 315.500787,103.705812 C316.125742,103.089045 316.89612,102.781579 317.811002,102.781579 Z M387.526453,75.9052178 C390.760753,75.9052178 393.427164,76.9056288 395.526605,78.9064507 C397.625126,80.9063548 398.675307,83.5423 398.675307,86.8142863 L398.675307,87.1520397 C398.675307,89.3501904 398.186573,91.2886014 397.209104,92.9636014 C396.232555,94.6395192 394.89889,95.9216973 393.209028,96.8083 C391.519166,97.6958205 389.611168,98.1400397 387.486876,98.1400397 C385.394798,98.1400397 383.50981,97.698574 381.833754,96.8183959 C380.156778,95.9373 378.827715,94.6652178 377.847484,93.0030671 C376.868175,91.3409164 376.377599,89.4300397 376.377599,87.2713548 L376.377599,86.9336014 C376.377599,84.7473822 376.865413,82.8135603 377.83828,81.1312178 C378.811147,79.4488753 380.140211,78.1575192 381.82363,77.2571493 C383.507049,76.3558616 385.408604,75.9052178 387.526453,75.9052178 Z M374.004798,66.7857836 L374.004798,97.6828795 L368.08752,97.6828795 L368.08752,94.1970438 C367.514108,95.3213589 366.602908,96.2602767 365.352079,97.0110438 C364.10125,97.7636466 362.716962,98.1399479 361.199216,98.1399479 C358.535567,98.1399479 356.347766,97.1955233 354.634895,95.3085096 C352.922943,93.4205781 352.066047,90.7681123 352.066047,87.3501945 L352.066047,87.0133589 C352.066047,83.5954411 352.936749,80.8897425 354.674472,78.896263 C356.414036,76.9027836 358.63497,75.905126 361.339118,75.905126 C364.506228,75.905126 366.755695,77.1359068 368.08752,79.5983863 L368.08752,66.7857836 L374.004798,66.7857836 Z M317.62057,75.9055849 C320.418598,75.9055849 322.617443,76.5352014 324.218946,77.7925986 C325.818609,79.0518315 326.61844,81.0590781 326.61844,83.8134205 L326.61844,97.6824205 L320.780317,97.6824205 L320.780317,95.1189822 C319.350009,97.1335712 317.209149,98.139489 314.361419,98.139489 C312.241729,98.139489 310.499404,97.6099137 309.138126,96.5498452 C307.774087,95.4906945 307.092068,93.9010507 307.092068,91.7818315 C307.092068,90.5620644 307.363587,89.5102562 307.905705,88.6218178 C308.446903,87.7342973 309.223724,87.0257493 310.232487,86.496174 C311.24309,85.9665986 312.411083,85.5756123 313.735544,85.3232151 C315.060926,85.0726534 316.57223,84.9459959 318.272216,84.9459959 L320.700242,84.9459959 L320.700242,84.0777493 C320.700242,82.7175575 320.44529,81.7143932 319.935386,81.0682562 C319.426403,80.4221192 318.528088,80.0981329 317.243204,80.0981329 C315.096822,80.0981329 313.891093,81.1315849 313.626016,83.1975712 L307.926875,83.1975712 C308.048368,81.5684616 308.551829,80.1972562 309.436337,79.0848726 C310.320845,77.972489 311.453863,77.1648178 312.834469,76.6609411 C314.215075,76.1570644 315.810135,75.9055849 317.62057,75.9055849 Z M342.720356,75.9048507 C344.924724,75.9048507 346.675332,76.5913712 347.970341,77.9625767 C349.265349,79.3328644 349.912393,81.3896726 349.912393,84.1311658 L349.912393,97.6826041 L343.995116,97.6826041 L343.995116,84.9709603 C343.995116,83.512563 343.693223,82.4350562 343.088518,81.7384397 C342.483812,81.0427411 341.531194,80.693974 340.229743,80.693974 C338.914486,80.693974 337.844976,81.0987274 337.021214,81.9082342 C336.197453,82.7168233 335.786032,83.8769329 335.786032,85.388563 L335.786032,97.6826041 L329.867834,97.6826041 L329.867834,76.4023027 L335.786032,76.4023027 L335.786032,79.7651521 C336.356683,78.6298233 337.237509,77.702837 338.425751,76.9841932 C339.614913,76.2655493 341.047062,75.9048507 342.720356,75.9048507 Z M426.774322,75.9048507 C428.890331,75.9048507 430.597681,76.5886178 431.897291,77.9524808 C433.195981,79.3163438 433.844866,81.3502068 433.844866,84.0513164 L433.844866,97.6826041 L427.926668,97.6826041 L427.926668,84.6616589 C427.926668,82.0174534 426.8139,80.693974 424.588363,80.693974 C423.395519,80.693974 422.412528,81.0730288 421.637547,81.8311384 C420.861647,82.5892479 420.475077,83.665837 420.475077,85.0609055 L420.475077,97.6826041 L414.556879,97.6826041 L414.556879,84.6616589 C414.556879,83.3326726 414.264191,82.3396041 413.680655,81.6806178 C413.095278,81.0234671 412.271516,80.693974 411.20937,80.693974 C410.013765,80.693974 409.027092,81.0730288 408.250271,81.8311384 C407.47345,82.5892479 407.085039,83.665837 407.085039,85.0609055 L407.085039,97.6826041 L401.166841,97.6826041 L401.166841,76.4023027 L407.085039,76.4023027 L407.085039,79.6155493 C407.65569,78.5563986 408.512586,77.6725493 409.655728,76.965837 C410.797949,76.2591247 412.118729,75.9048507 413.619908,75.9048507 C416.613062,75.9048507 418.610339,77.1292068 419.611738,79.5770014 C420.434579,78.3599877 421.481999,77.4440151 422.754918,76.8281658 C424.028757,76.2132342 425.368865,75.9048507 426.774322,75.9048507 Z M306.652023,76.0847411 L306.652023,81.2905493 L306.453216,81.2905493 C304.274619,81.2905493 302.620653,81.7081521 301.491317,82.5433575 C300.33621,83.4051795 299.758197,84.8342068 299.758197,86.8286041 L299.758197,97.6826041 L293.839999,97.6826041 L293.839999,76.4023027 L299.758197,76.4023027 L299.758197,80.2570973 C300.4485,78.8721247 301.344973,77.8340836 302.448538,77.1411384 C303.550261,76.449111 304.951116,76.0966726 306.652023,76.0847411 Z M320.700242,88.443763 L318.436048,88.443763 C316.633897,88.443763 315.278142,88.668626 314.370623,89.1192699 C313.463105,89.5689959 313.009346,90.3362836 313.009346,91.4202151 C313.009346,92.2168726 313.264298,92.837311 313.774201,93.2806123 C314.285026,93.7257493 315.062767,93.9469411 316.110187,93.9469411 C317.447534,93.9469411 318.548337,93.6082699 319.408915,92.9290918 C320.270413,92.2499137 320.700242,91.3422014 320.700242,90.2059548 L320.700242,88.443763 Z M387.526453,80.455711 C385.889055,80.455711 384.608772,81.0128205 383.683766,82.1288753 C382.75876,83.2449301 382.295797,84.8070397 382.295797,86.8161219 L382.295797,87.1502041 C382.295797,89.1859027 382.751397,90.7672863 383.662597,91.8961904 C384.575638,93.0250945 385.862363,93.5895466 387.526453,93.5895466 C389.176738,93.5895466 390.460701,93.0250945 391.379265,91.8961904 C392.297828,90.7672863 392.757109,89.1978342 392.757109,87.1896699 L392.757109,86.8950534 C392.757109,84.8731219 392.297828,83.2944918 391.379265,82.159163 C390.460701,81.0238342 389.176738,80.455711 387.526453,80.455711 Z M363.135746,80.4556192 C361.471656,80.4556192 360.196896,81.0072219 359.311467,82.1104274 C358.426959,83.2127151 357.984245,84.8207151 357.984245,86.9335096 L357.984245,87.271263 C357.984245,89.3308247 358.437084,90.8993589 359.342761,91.9750301 C360.247518,93.0516192 361.45785,93.5894548 362.976516,93.5894548 C364.586303,93.5894548 365.866585,93.0479479 366.819203,91.9649342 C367.770901,90.8828384 368.245829,89.2913589 368.245829,87.1923315 L368.245829,86.8536603 C368.245829,84.7546329 367.804036,83.1622356 366.918607,82.0801397 C366.033178,80.997126 364.773145,80.4556192 363.135746,80.4556192 Z M324.81454,40.2064247 C325.897855,40.2064247 326.920424,40.2963699 327.883167,40.4753425 C328.84683,40.6543151 329.771836,40.9526027 330.657265,41.3692877 C331.543614,41.7868904 332.315833,42.3063699 332.977603,42.9295616 C333.638453,43.5518356 334.187014,44.3328904 334.622365,45.2736438 C335.058637,46.2143973 335.332917,47.2799726 335.445207,48.4722055 L329.286783,48.4722055 C328.901134,45.9959589 327.45702,44.7569178 324.954441,44.7569178 C323.397118,44.7569178 322.155493,45.3140274 321.230487,46.426411 C320.306401,47.5397123 319.843438,49.0953973 319.843438,51.0962192 L319.843438,51.4339726 C319.843438,53.552274 320.295356,55.1584384 321.201034,56.2515479 C322.106711,57.3446575 323.397118,57.8907534 325.074094,57.8907534 C326.312037,57.8907534 327.350253,57.5456575 328.188741,56.8536301 C329.027229,56.1616027 329.514123,55.1703699 329.646661,53.8771781 L335.564859,53.8771781 C335.387221,56.4598904 334.348085,58.5332192 332.447451,60.0962466 C330.545896,61.659274 327.988093,62.4412466 324.774963,62.4412466 C323.223161,62.4412466 321.790092,62.1989452 320.474835,61.7161781 C319.159578,61.2315753 318.015515,60.5404658 317.042648,59.6391781 C316.068861,58.7388082 315.305846,57.5988904 314.753603,56.2212603 C314.201361,54.8436301 313.92524,53.308137 313.92524,51.6120274 L313.92524,51.274274 C313.92524,49.048589 314.414895,47.0853973 315.395125,45.382863 C316.374435,43.6803288 317.686931,42.3926438 319.330773,41.5188904 C320.974614,40.6442192 322.802537,40.2064247 324.81454,40.2064247 Z M387.228979,40.2066082 C390.463279,40.2066082 393.129689,41.2070192 395.229131,43.2078411 C397.327652,45.2077452 398.377833,47.8436904 398.377833,51.1156767 L398.377833,51.4534301 C398.377833,53.6515808 397.889098,55.5899918 396.911629,57.2649918 C395.935081,58.9409096 394.601415,60.2230877 392.911553,61.1096904 C391.221691,61.997211 389.313694,62.4414301 387.189401,62.4414301 C385.097323,62.4414301 383.212335,61.9999644 381.53628,61.1197863 C379.859304,60.2386904 378.53024,58.9666082 377.55001,57.3044575 C376.5707,55.6423068 376.080125,53.7314301 376.080125,51.5727452 L376.080125,51.2349918 C376.080125,49.0487726 376.567939,47.1149507 377.540806,45.4326082 C378.513673,43.7502658 379.842736,42.4589096 381.526155,41.5585397 C383.209574,40.6572521 385.111129,40.2066082 387.228979,40.2066082 Z M302.974088,40.2069753 C305.772117,40.2069753 307.970962,40.8365918 309.572465,42.093989 C311.171207,43.3532219 311.971038,45.3604685 311.971038,48.114811 L311.971038,61.983811 L306.133835,61.983811 L306.133835,59.4203726 C304.703528,61.4349616 302.562668,62.4408795 299.714938,62.4408795 C297.595247,62.4408795 295.852922,61.9113041 294.490724,60.8512356 C293.126686,59.7920849 292.444666,58.2024411 292.444666,56.0832219 C292.444666,54.8634548 292.716185,53.8116466 293.258303,52.9232082 C293.799501,52.0356877 294.576322,51.3271397 295.586005,50.7975644 C296.596609,50.267989 297.764602,49.8770027 299.089063,49.6246055 C300.414445,49.3740438 301.925748,49.2473863 303.625734,49.2473863 L306.05376,49.2473863 L306.05376,48.3791397 C306.05376,47.0189479 305.798808,46.0157836 305.288905,45.3696466 C304.779921,44.7235096 303.881607,44.3995233 302.596723,44.3995233 C300.45034,44.3995233 299.244611,45.4329753 298.979535,47.4989616 L293.279473,47.4989616 C293.400966,45.8698521 293.904427,44.4986466 294.788935,43.386263 C295.674364,42.2738795 296.807381,41.4662082 298.187987,40.9623315 C299.568593,40.4584548 301.163654,40.2069753 302.974088,40.2069753 Z M358.872067,40.2067918 C364.388968,40.2067918 367.391326,42.4058603 367.880981,46.8030795 L362.249029,46.8030795 C362.089799,45.9715452 361.745568,45.3621205 361.216336,44.9775589 C360.686183,44.5920795 359.918566,44.3993397 358.911644,44.3993397 C357.971911,44.3993397 357.232827,44.5985041 356.697152,44.9959151 C356.160556,45.3924082 355.891798,45.9173945 355.891798,46.5681205 C355.891798,47.2188466 356.182646,47.7006959 356.766182,48.0136685 C357.348798,48.3266411 358.428432,48.5992301 360.005084,48.8332712 C361.434471,49.0425315 362.642962,49.2857507 363.629635,49.5656822 C364.616308,49.8465315 365.498976,50.2301753 366.279478,50.7184493 C367.05906,51.2067233 367.62787,51.8354219 367.986828,52.6036274 C368.344865,53.3718329 368.525264,54.3024904 368.525264,55.3965178 C368.525264,57.6855315 367.720831,59.4312027 366.113806,60.6353671 C364.50586,61.8386137 362.237064,62.4406959 359.309258,62.4406959 C356.412747,62.4406959 354.157757,61.8257644 352.544289,60.5931479 C350.9299,59.3614493 350.076686,57.5992575 349.983725,55.3074904 L355.503388,55.3074904 C355.636846,56.2877096 355.9866,57.0237918 356.55541,57.5129836 C357.122378,58.004011 358.027136,58.2481479 359.269681,58.2481479 C361.494298,58.2481479 362.607066,57.4872849 362.607066,55.9637233 C362.607066,55.2597644 362.282164,54.7292712 361.633279,54.3704082 C360.984394,54.0133808 359.871625,53.7178466 358.295894,53.4828877 C355.311023,53.0524356 353.178447,52.3622438 351.896324,51.4123123 C350.615122,50.461463 349.9736,48.9773671 349.9736,46.958189 C349.9736,45.8669151 350.219348,44.8839425 350.709003,44.0065178 C351.197738,43.1309288 351.86319,42.4242164 352.701678,41.8845452 C353.541086,41.3457918 354.486341,40.9318603 355.535602,40.6418329 C356.584863,40.3518055 357.696711,40.2067918 358.872067,40.2067918 Z M343.97634,36.0942767 L343.97634,40.7044274 L348.41913,40.7044274 L348.41913,44.8960575 L343.97634,44.8960575 L343.97634,55.0855644 C343.97634,56.7568932 344.758683,57.5930164 346.326131,57.5930164 C347.116758,57.5930164 347.853081,57.4553452 348.538782,57.1781671 L348.538782,61.8158521 C347.449024,62.1930712 346.253419,62.3812219 344.951968,62.3812219 C342.707102,62.3812219 340.996071,61.8176877 339.821636,60.6924548 C338.64628,59.5663041 338.058142,57.8977288 338.058142,55.685811 L338.058142,44.8960575 L335.367801,44.8960575 L335.367801,40.7044274 L338.058142,40.7044274 L338.058142,36.0942767 L343.97634,36.0942767 Z M409.477629,30.7489616 C410.579353,30.7489616 411.601922,30.8903041 412.546257,31.1720712 L412.546257,35.6574 C411.861476,35.4187699 411.14264,35.2994548 410.391591,35.2994548 C409.496038,35.2994548 408.834267,35.5509342 408.406279,36.0538932 C407.977371,36.5577699 407.762917,37.2397014 407.762917,38.1015233 L407.762917,40.7044274 L412.386106,40.7044274 L412.386106,44.8960575 L407.762917,44.8960575 L407.762917,61.983811 L401.845639,61.983811 L401.845639,44.8960575 L399.076143,44.8960575 L399.076143,40.7044274 L401.845639,40.7044274 L401.845639,38.2456192 C401.845639,35.7932356 402.512932,33.9310027 403.848438,32.6580027 C405.183945,31.3850027 407.059728,30.7489616 409.477629,30.7489616 Z M306.05376,52.7451534 L303.789566,52.7451534 C301.987415,52.7451534 300.63166,52.9700164 299.724142,53.4206603 C298.816623,53.8703863 298.362864,54.637674 298.362864,55.7216055 C298.362864,56.518263 298.617816,57.1387014 299.12772,57.5820027 C299.638544,58.0271397 300.416286,58.2483315 301.463705,58.2483315 C302.801052,58.2483315 303.901856,57.9096603 304.762433,57.2304822 C305.623932,56.5513041 306.05376,55.6435918 306.05376,54.5073452 L306.05376,52.7451534 Z M387.228979,44.7571014 C385.59158,44.7571014 384.311298,45.314211 383.386292,46.4302658 C382.461286,47.5463205 381.998323,49.1084301 381.998323,51.1175123 L381.998323,51.4515945 C381.998323,53.4872932 382.453923,55.0686767 383.365123,56.1975808 C384.278163,57.3264849 385.564888,57.890937 387.228979,57.890937 C388.879263,57.890937 390.163227,57.3264849 391.08179,56.1975808 C392.000353,55.0686767 392.459635,53.4992247 392.459635,51.4910603 L392.459635,51.1964438 C392.459635,49.1745123 392.000353,47.5958822 391.08179,46.4605534 C390.163227,45.3252247 388.879263,44.7571014 387.228979,44.7571014 Z" id="Combined-Shape" fill="#000000"></path>
            <path d="M8.71879973,28.659663 C4.91661064,28.6624164 2.39286276,30.4383753 0.771110839,34.2500329 C0.212425587,35.5624986 -0.0443671404,36.939211 0.00625508183,38.3434575 C0.0955342737,40.7554575 1.06379932,43.328074 2.96719488,46.2099918 C5.95114478,50.726526 10.2190583,55.3541151 15.3098131,59.5916356 C16.2651925,60.3873753 17.2601492,61.1721014 18.2762753,61.9292932 C19.2905605,61.1721014 20.2864377,60.3873753 21.2418171,59.5916356 C26.3334923,55.3541151 30.6004854,50.726526 33.5853557,46.2099918 C35.4887512,43.328074 36.4570163,40.7554575 36.5453751,38.3434575 C36.5969177,36.939211 36.340125,35.5624986 35.7805193,34.2500329 C34.1596878,30.4383753 31.6350195,28.6624164 27.8365121,28.659663 C23.8852175,28.659663 21.0558955,32.2042384 19.3789193,35.1788548 L18.2762753,37.1328685 L17.1736312,35.1788548 C15.4957347,32.2042384 12.6673331,28.659663 8.71879973,28.659663" id="Fill-41" fill="#00BABA"></path>
        </g>
        <g id="Group-9" transform="translate(50.000000, 516.000000)">
            <path d="M94.9416944,367.347899 C94.9416944,367.11525 96.4539158,356.60725 96.4539158,356.60725 L84.5887942,356.898062 L82.6500488,370.992741 C87.0136356,370.992741 91.2834853,369.726638 94.9416944,367.347899 Z" id="Path" fill="#875A3B"></path>
            <path d="M129.2381,382.760925 L126.87283,375.665117 L94.9223069,367.406062 C91.2640979,369.7848 86.9942482,371.050938 82.6306614,371.050903 L81.0408902,382.683375 L129.2381,382.760925 Z" id="Path" fill="#222222"></path>
            <path d="M125.069797,157.982788 C116.287281,156.315467 70.1839162,160.890906 56.3412743,158.506249 C64.2901303,197.688293 62.4677096,217.986957 73.1889715,241.697813 C72.8399973,270.87593 70.9012519,300.868321 80.1102924,356.587862 C85.5775543,357.014386 97.8110375,356.238888 97.8110375,356.238888 C105.17827,327.564844 120.261709,243.733495 125.069797,157.982788 Z" id="Path" fill="#0B4EAF"></path>
            <path d="M108.881274,258.584285 C116.500543,245.82734 129.257487,183.32219 129.238122,164.690847 C129.238122,152.282877 108.280262,173.163164 107.058853,159.882758 C99.7691703,153.969585 62.9330085,169.266286 55.8759754,163.120463 C53.9372301,185.939496 58.9391931,220.953237 63.2432078,245.82734 C47.3648833,283.826749 26.407046,327.254645 16.4225074,346.758424 L31.4477839,355.69604 C62.1694926,327.56553 88.2970876,294.798098 108.881274,258.584285 L108.881274,258.584285 Z" id="Path" fill="#266ABC"></path>
            <path d="M23.6346401,359.554143 C23.6346401,359.554143 18.2061531,361.880637 10.4705591,358.138859 C6.72878057,365.195892 4.53799832,369.112158 4.53799832,369.112158 L27.2019316,382.392563 L46.1628612,382.993574 L42.7118944,375.587567 L34.956913,373.648822 L23.6346401,359.554143 Z" id="Path" fill="#222222"></path>
            <path d="M23.6346401,359.554143 L27.2019316,353.195058 L16.3837325,346.758424 C14.7357989,349.918578 11.7307436,355.676652 10.4317842,358.138859 C18.2061531,361.880637 23.6346401,359.554143 23.6346401,359.554143 Z" id="Path" fill="#875A3B"></path>
            <path d="M139.397125,24.50017 C139.397125,24.50017 136.954306,22.1155132 138.059391,19.6533066 C138.641075,18.5626075 139.738392,17.8434412 140.970608,17.7453348 C142.202824,17.6472285 143.400111,18.1837033 144.147052,19.1686202 C147.841602,18.8825375 151.31933,17.3117296 153.976491,14.7288934 L156.225435,29.1337714 L153.084668,29.3664208 L152.173457,38.1683248 L143.100129,36.4428414 L142.053207,47.9008265 L134.433937,44.7212841 L133.832926,36.3652916 L133.483952,32.1000518 L139.397125,24.50017 Z" id="Path" fill="#875A3B"></path>
            <path d="M125.166735,77.7962799 C117.982897,76.7190134 110.748194,76.0136622 103.491561,75.6830475 C95.5814804,75.3146858 87.9815986,74.7524497 80.2266171,73.9187892 C76.6644079,76.9736353 74.0984759,81.0251071 72.8593848,85.5512613 C68.5747575,110.890663 125.360609,121.185401 152.07652,124.520043 C167.128772,130.281385 183.274922,132.6192 199.343132,131.363814 C201.281877,124.733305 200.913516,118.742582 203.356335,111.414124 L163.243693,103.484656 C151.311564,93.8457208 138.57227,85.2512375 125.166735,77.7962799 L125.166735,77.7962799 Z" id="Path" fill="#754E34"></path>
            <path d="M46.2016361,183.845651 C46.2016361,183.845651 82.6500488,210.328913 129.2381,202.031082 C137.361443,164.051061 149.207177,66.5127819 145.038874,59.3588115 L154.05404,54.5313356 L129.955436,32.1194392 L126.698343,43.7519114 C121.376914,45.3944654 116.331806,47.8255281 111.731229,50.9640441 C110.606757,51.6813799 109.462897,52.4568781 108.280262,53.309926 C89.241783,66.9199184 68.7298571,85.0471875 46.2016361,183.845651 Z" id="Path" fill="#222222"></path>
            <path d="M81.3510894,96.6214973 C87.6713993,86.2879846 88.9509712,74.1320512 96.8610523,67.8311287 C104.305834,61.8210181 115.45362,63.1587524 121.114757,59.164937 C132.960491,50.8089445 139.455288,24.50017 139.455288,24.50017 C139.455288,24.50017 137.012469,22.1155132 138.117554,19.6533066 C138.699238,18.5626075 139.796554,17.8434412 141.02877,17.7453348 C142.260986,17.6472285 143.458274,18.1837033 144.205214,19.1686202 C147.899765,18.8825375 151.377492,17.3117296 154.034653,14.7288934 C154.771376,2.63112233 141.335871,0.401565167 136.585945,0.0138160948 C136.502942,-0.00460536493 136.41691,-0.00460536493 136.333908,0.0138160948 L134.957399,0.0138160948 L134.957399,0.0138160948 C134.022746,0.0141872749 133.089469,0.0854792575 132.165605,0.227078084 C119.040299,2.41786034 115.434233,15.2717421 106.961916,18.645159 C98.4895984,22.0185759 94.5151704,15.737041 79.1990821,20.7777789 C63.8829937,25.8185168 64.8523664,34.077572 56.2055621,38.7305609 C47.5587578,43.3835498 22.4132305,31.2663913 9.52057389,51.7783172 C-26.889064,109.727416 50.7189128,146.679902 81.3510894,96.6214973 Z" id="Path" fill="#000000"></path>
            <path d="M234.841559,77.7962799 C234.841559,77.7962799 277.493957,72.755542 261.983995,56.9935422 C246.474032,41.2315424 236.101744,41.6774539 225.39987,75.4310106 C215.822468,63.3720144 216.345929,43.480487 203.31756,51.3517932 C190.289191,59.2230994 185.035191,67.113793 188.408608,68.994376 C191.782025,70.874959 211.382741,77.7962799 211.382741,77.7962799 L234.841559,77.7962799 Z" id="Path" fill="#FF644A"></path>
            <path d="M183.36787,140.359593 C187.730047,142.821799 197.326837,144.062596 208.222586,144.430958 C213.844947,144.64422 219.855058,144.64422 225.554969,144.430958 C241.472069,143.946272 255.935109,142.182013 257.621817,140.340205 C261.150334,136.462714 273.28688,89.9328258 268.730828,86.0553351 C265.357411,83.1084422 251.417832,79.9870621 234.841559,77.7768924 C227.338615,76.7493574 219.331597,75.8381471 211.46029,75.4116231 C192.072837,74.0738888 173.906793,74.4810253 168.148719,78.1258666 C163.708992,80.8982725 170.475214,133.108685 183.36787,140.359593 Z" id="Path" fill="#C82A2A"></path>
            <path d="M208.222586,144.430958 C213.844947,144.64422 219.855058,144.64422 225.554969,144.430958 L234.841559,77.7962799 C227.338615,76.7687449 219.331597,75.8575345 211.46029,75.4310106 L208.222586,144.430958 Z" id="Path" fill="#FF644A"></path>
            <path d="M125.457546,196.970957 C125.159524,197.165352 124.874564,197.379072 124.604498,197.610743 C124.091651,197.982978 123.554018,198.319808 122.99534,198.618891 C121.657605,199.375001 120.455583,197.339319 121.793318,196.621983 C122.859628,196.059747 123.732063,195.187311 124.837148,194.683238 C126.252432,194.101614 126.775893,196.389333 125.457546,196.970957 Z M107.737414,192.68633 C108.841542,193.155898 109.590069,194.203835 109.676159,195.400573 C109.870034,196.912795 107.504764,196.893407 107.31089,195.400573 C107.31089,195.284249 106.845591,194.857725 107.194565,194.974049 C106.626118,194.771729 106.301127,194.173915 106.440434,193.586837 C106.57974,192.99976 107.13867,192.611689 107.737414,192.68633 Z M94.3988457,191.154721 C94.570164,191.786457 94.1969215,192.437462 93.5651852,192.60878 C93.9335468,192.492455 93.5651852,192.60878 93.5651852,192.841429 L93.0417239,193.500603 C92.8281663,193.775709 92.5878811,194.028982 92.3243882,194.256714 C92.1337264,194.612496 91.7585109,194.830121 91.3550155,194.81895 L91.1805284,194.81895 C89.9785063,194.81895 89.3968827,193.132241 90.5019675,192.60878 C91.54889,192.085319 91.7233771,190.670035 92.9447867,190.321061 C93.576523,190.149742 94.2275273,190.522985 94.3988457,191.154721 Z M83.7163588,189.526175 C83.7258347,190.502487 83.464078,191.462261 82.9602481,192.298581 C82.6177056,192.851895 81.9014949,193.039474 81.331702,192.725105 C80.8469012,192.418206 80.5539623,191.883592 80.5562038,191.309821 C80.5174611,191.062597 80.5799176,190.810188 80.7294779,190.609558 C80.8790383,190.408928 81.1030977,190.276987 81.3510894,190.243511 L81.3510894,189.526175 L81.3510894,189.526175 C81.4868016,188.033341 83.8520709,188.013954 83.7163588,189.526175 Z M67.5859974,189.545562 C69.020669,190.010861 68.4002704,192.298581 66.9655989,191.813894 C66.3320574,191.657277 65.6772366,191.604892 65.0268535,191.658795 C64.3737025,191.63738 63.8615791,191.090536 63.8829939,190.437385 C63.9044087,189.784234 64.4512523,189.272111 65.1044033,189.293525 C65.9399835,189.231164 66.7800171,189.316479 67.5859974,189.545562 Z M120.455583,188.110891 C121.075982,189.4874 119.040299,190.689422 118.516838,189.312913 C118.400513,189.060876 118.303576,188.808839 118.187251,188.57619 C118.124326,188.411158 118.053149,188.249392 117.973989,188.091503 C117.940129,188.013785 117.89434,187.941831 117.838277,187.878241 C117.313434,187.698785 116.979536,187.183502 117.030169,186.631143 C117.080802,186.078784 117.502817,185.632793 118.051539,185.551747 C119.466823,185.45481 119.990284,187.102743 120.455583,188.110891 Z M96.589628,180.627334 C96.5495309,181.704388 96.0737249,182.718974 95.2712811,183.438514 C94.2049712,184.524212 92.5376502,182.856891 93.6039601,181.771193 C93.9644223,181.493226 94.1955663,181.079968 94.2437461,180.627334 C94.2437461,179.115112 96.6865652,179.115112 96.589628,180.627334 Z M52.4056212,178.359002 C53.0066323,179.580411 54.0923297,181.771193 52.5801083,182.721179 C51.4944109,183.419127 50.5056508,182.10078 50.9709497,181.170182 C50.9115065,180.940499 50.8403257,180.714015 50.7576877,180.491622 C50.6566768,180.164155 50.5269224,179.846257 50.3699386,179.541636 C49.6526028,178.184515 51.6882854,176.982492 52.4056212,178.359002 Z M83.1541226,179.076337 C82.3607892,180.364286 81.1280679,181.321539 79.6837684,181.771193 C78.3266467,182.217105 77.7062482,179.929385 79.1603072,179.502861 C80.0136627,179.215132 80.740256,178.639341 81.2153773,177.874315 C82.0684252,176.633518 84.1041078,177.874315 83.1541226,179.076337 Z M69.2436247,176.261167 C69.8383569,176.261167 70.3405742,176.702834 70.4165656,177.292692 C70.5523682,178.445491 70.5523682,179.610247 70.4165656,180.763046 C70.048204,182.236492 67.7798719,181.596706 68.1482335,180.12326 C68.1973393,179.769519 68.1973393,179.410691 68.1482335,179.05695 C68.0125214,178.475326 68.0706837,177.874315 68.0706837,177.292692 C68.1466752,176.702834 68.6488925,176.261167 69.2436247,176.261167 Z M108.2221,179.250825 C107.659864,179.250825 106.942528,180.355909 106.438454,180.666109 C105.139495,181.460994 103.95686,179.425312 105.25582,178.611039 C106.341517,177.951865 106.826203,177.040655 108.2221,176.885555 C109.617997,176.730456 109.695547,179.076337 108.2221,179.250825 Z M61.886086,178.126352 C63.3013701,178.611039 62.7003591,180.898758 61.2463001,180.394684 C60.3929253,180.132537 59.5017956,180.014593 58.6096064,180.04571 C57.9564554,180.04571 57.426972,179.516226 57.426972,178.863075 C57.426972,178.209924 57.9564554,177.680441 58.6096064,177.680441 C59.7190917,177.643362 60.8268614,177.794124 61.886086,178.126352 Z M132.20438,176.110057 C131.487044,177.467179 129.722786,177.602891 128.540151,177.83554 C127.10548,178.14574 126.485081,175.85802 128.01669,175.567208 C128.481989,175.470271 130.110535,175.276397 130.265635,174.927422 C130.886033,173.550913 132.921716,174.752935 132.20438,176.110057 Z M120.029059,175.121297 C120.029059,175.664146 120.184159,176.168219 120.222934,176.711068 C120.339259,178.223289 117.973989,178.203902 117.857665,176.711068 C117.857665,176.168219 117.702565,175.664146 117.66379,175.121297 C117.547465,173.609076 119.912735,173.609076 120.029059,175.121297 Z M75.6705655,169.654035 C76.0468641,169.424136 76.5208059,169.42678 76.8945164,169.660862 C77.2682269,169.894944 77.4774463,170.320215 77.4348238,170.75912 L77.4348238,170.75912 L77.428052,170.886543 C77.365307,171.472668 76.8741061,171.931876 76.2715766,171.941755 C75.5542408,171.999917 74.9920047,172.135629 74.3328312,172.135629 C73.7429739,172.059638 73.3013068,171.55742 73.3013068,170.962688 C73.3013068,170.367956 73.7429739,169.865739 74.3328312,169.789747 C74.7812659,169.77433 75.2281711,169.728991 75.6705655,169.654035 Z M58.2024698,169.188736 C57.3300344,168.006101 59.3657171,166.765304 60.2381525,168.006101 C60.6065141,168.510175 61.0912004,169.033636 61.4401746,169.576485 C61.5081491,169.631555 61.567032,169.69698 61.6146617,169.77036 C61.7741194,170.040949 61.8609389,170.348157 61.8666986,170.662183 C61.859105,171.188452 61.5046367,171.646371 60.9970664,171.785616 C60.4894962,171.924861 59.9509859,171.711918 59.6759163,171.263194 C59.2323636,170.539104 58.7400789,169.846019 58.2024698,169.188736 Z M112.157753,166.33878 C113.359775,166.33878 114.523023,166.532655 115.705657,166.532655 C116.358808,166.532655 116.888292,167.062139 116.888292,167.71529 C116.888292,168.368441 116.358808,168.897924 115.705657,168.897924 C114.61996,168.897924 113.534262,168.70405 112.448565,168.70405 C112.105792,168.80915 111.733447,168.744497 111.446168,168.529996 C111.15889,168.315495 110.991118,167.976861 110.994506,167.618352 L110.994506,167.618352 L110.994506,167.521415 C110.989308,167.209557 111.109565,166.908676 111.328282,166.686313 C111.546999,166.463951 111.845852,166.338737 112.157753,166.33878 Z M93.9141594,166.668367 C92.7509121,165.698994 94.4182332,164.031673 95.5814804,165.001046 C96.0047183,165.379039 96.3999678,165.787248 96.764115,166.222456 C97.0223289,166.256029 97.2561792,166.392072 97.4129945,166.599943 C97.5698098,166.807815 97.6364032,167.070034 97.5977755,167.327541 C97.5918641,167.817846 97.3359528,168.271175 96.9192147,168.529563 C96.4584857,168.811569 95.8642445,168.739296 95.4845431,168.355076 C95.0122459,167.747289 94.4867045,167.182819 93.9141594,166.668367 Z M69.408418,162.655164 C70.474728,161.569467 72.142049,163.236788 70.9788018,164.341873 C70.5595638,164.796265 70.1058392,165.21758 69.62168,165.602057 L69.62168,165.602057 L69.1176062,165.951031 C68.976173,166.18268 68.744103,166.344426 68.4778202,166.396943 L68.4778202,166.396943 L68.3403109,166.418891 C67.9275853,166.460066 67.5188407,166.281367 67.2695359,165.941406 C66.9925304,165.563672 66.9645741,165.058042 67.1982483,164.652072 C67.2772037,164.365806 67.4963473,164.139357 67.7798719,164.051061 L67.7798719,164.051061 L68.2645583,163.740862 C68.6735574,163.409327 69.0560094,163.046321 69.408418,162.655164 Z M84.9571558,162.577614 C85.1558283,161.998577 85.7635442,161.666861 86.3580268,161.812963 C86.9525093,161.959064 87.3372357,162.534685 87.2448753,163.139851 C87.1029123,163.652351 87.0183806,164.179049 86.9928384,164.710234 C86.9928384,165.363385 86.4633549,165.892869 85.8102038,165.892869 C85.1570527,165.892869 84.6275691,165.363385 84.6275691,164.710234 L84.6275691,164.710234 L84.6275691,164.51636 C84.6733659,163.86084 84.7837634,163.211443 84.9571558,162.577614 Z M75.5955788,160.202026 C76.1782641,160.042659 76.7873953,160.348047 77.0082998,160.910293 C77.144012,161.453142 77.2603367,161.995991 77.3766614,162.558227 L77.3766614,162.558227 L77.6093109,163.663312 C77.6198789,163.759961 77.6198789,163.857474 77.6093109,163.954124 C77.8205682,164.317763 77.8217786,164.766485 77.6124861,165.131259 C77.4031935,165.496033 77.0151946,165.721442 76.5946448,165.72258 C76.1740949,165.72371 75.7848856,165.500398 75.5736283,165.136758 L75.5736283,165.136758 L75.512651,165.058635 C75.4749851,165.004416 75.4433971,164.946097 75.4185286,164.884721 L75.4185286,164.884721 L75.4103351,164.77809 L75.4103351,164.77809 L75.4185286,164.671459 C75.310166,164.27628 75.2259975,163.874861 75.1664917,163.469437 C75.0307796,162.868426 74.8950674,162.209253 74.7399678,161.530692 C74.6439747,160.934282 75.0128935,160.361393 75.5955788,160.202026 Z M103.1312,160.50111 C103.645033,160.374905 104.180171,160.605355 104.441547,161.065393 C104.875663,161.487723 105.357072,161.858538 105.876218,162.170478 C106.356105,162.465156 106.57232,163.049738 106.399679,163.585762 L106.399679,163.585762 L106.356928,163.71632 C106.223708,164.055216 105.940074,164.316674 105.585406,164.419423 L105.585406,164.419423 L105.488469,164.419423 C105.104123,164.473226 104.716741,164.344099 104.441547,164.070448 C103.549724,163.546987 102.231377,162.635777 102.231377,161.608242 C102.249885,161.079461 102.617367,160.627314 103.1312,160.50111 Z M134.511487,160.522544 C134.046188,160.697031 133.600277,160.697031 133.134978,160.832744 C132.614955,161.03785 132.115182,161.290981 131.642144,161.588854 C130.285022,162.286803 129.102388,160.231733 130.459509,159.553172 C131.006088,159.22658 131.576385,158.941432 132.165605,158.700124 C132.727841,158.467474 133.328853,158.467474 133.871701,158.234825 C135.286985,157.672589 135.810447,159.960308 134.511487,160.522544 Z M55.3691914,158.939623 C55.6499212,158.486833 56.1987442,158.277644 56.7096359,158.428699 C57.3235281,158.696499 57.9798147,158.854008 58.6483813,158.893998 C59.1255168,159.041669 59.5816437,159.250184 60.005503,159.514397 C60.2930233,159.729958 60.4647748,160.066305 60.4708019,160.425607 L60.4708019,160.425607 L60.4708019,160.541932 C60.4235377,160.976379 60.1442085,161.350947 59.7412926,161.520172 C59.3383768,161.689396 58.8753602,161.626613 58.5320566,161.356205 C57.502217,161.097093 56.4916338,160.76671 55.5076138,160.367445 C55.1451362,159.977011 55.0884615,159.392413 55.3691914,158.939623 Z M92.2468383,154.027747 C92.5841213,153.454902 93.3219262,153.263941 93.8947718,153.601224 C94.4676174,153.938506 94.6585787,154.676311 94.3212959,155.249157 C93.9815561,155.857679 93.7271347,156.510042 93.5651852,157.187902 C93.4137628,157.764916 92.8563001,158.138818 92.2649817,158.059975 C91.6736633,157.981133 91.2336407,157.474233 91.2386908,156.877703 L91.2386908,156.877703 L91.2386908,156.548116 L91.2696524,156.435574 C91.2929304,156.361347 91.3214497,156.288815 91.3550155,156.21853 C91.5592797,155.453772 91.8589046,154.717737 92.2468383,154.027747 Z M83.425547,151.468604 C84.453082,150.344131 86.120403,152.011452 85.092868,153.213474 C84.492465,153.731412 83.9929309,154.35583 83.6194215,155.055282 C83.4672369,155.567715 83.0885607,155.982115 82.5918865,156.179755 C81.4480267,156.567504 80.8276282,155.07467 81.4480267,154.241009 L81.4480267,154.241009 L81.2929271,154.357334 C81.8481172,153.288672 82.5677654,152.313876 83.425547,151.468604 Z M120.610683,152.883888 C120.688758,153.250723 120.805745,153.608182 120.959657,153.950198 C121.463731,155.384869 119.195399,156.005268 118.691325,154.570596 C118.474981,154.028476 118.325249,153.462097 118.245414,152.883888 C118.090314,151.468604 120.436196,151.468604 120.610683,152.883888 Z M60.9942632,149.510471 C61.6474143,149.510471 62.1768978,150.039954 62.1768978,150.693105 L62.1768978,150.693105 L62.1768978,153.155312 C62.1768978,153.808463 61.6474143,154.337947 60.9942632,154.337947 C60.3411121,154.337947 59.8116285,153.808463 59.8116285,153.155312 L59.8116285,153.155312 L59.8116285,150.693105 C59.8116285,150.039954 60.3411121,149.510471 60.9942632,149.510471 Z M66.1707133,151.87574 C65.259503,150.576781 67.314573,149.394146 68.1094586,150.673718 C68.4002704,151.235954 68.3421081,150.96453 68.7492446,151.235954 C68.9659264,151.386914 69.1926379,151.522941 69.4278055,151.643091 C69.7404402,151.635697 70.0410805,151.763469 70.2527306,151.993685 C70.4643807,152.223901 70.5664837,152.5342 70.5328903,152.845113 L70.5328903,152.845113 L70.5252268,152.982269 C70.4889763,153.299093 70.3257611,153.590174 70.0695549,153.786488 C69.7767477,154.010847 69.3960214,154.085729 69.0400564,153.988972 C67.8771408,153.619468 66.8685848,152.87668 66.1707133,151.87574 Z M113.243451,148.90946 C111.960253,149.418094 110.7105,150.007355 109.501672,150.673718 C108.067,151.177792 107.446602,148.890072 108.881274,148.405386 C110.219008,147.959474 111.207768,146.912552 112.623052,146.641128 C114.038336,146.369703 114.736285,148.579873 113.243451,148.90946 Z M74.0807943,143.713622 C74.1777316,142.182013 76.5430009,142.182013 76.4266762,143.713622 C76.329739,144.586058 76.329739,145.419718 76.329739,146.272766 C76.329739,146.925917 75.8002554,147.455401 75.1471043,147.455401 L75.1471043,147.455401 L75.0177705,147.450517 C74.6761278,147.418195 74.3642169,147.233452 74.1721381,146.943588 C73.9560496,146.61749 73.9215953,146.203578 74.0807943,145.846242 L74.0807943,145.846242 Z M83.9487496,141.153832 C84.3546586,140.991468 84.8170288,141.066277 85.1510303,141.348353 C85.9171356,141.662837 86.6402451,142.073251 87.3030377,142.569762 C88.4081225,143.539135 86.7214141,145.187069 85.7132665,144.140146 C85.3702302,143.899637 84.9904834,143.716311 84.5887942,143.597297 C84.4890873,143.58068 83.7199197,143.15099 83.8928807,143.199487 L83.9091249,143.204526 L83.8289219,143.16448 C83.4964177,142.975152 83.2689621,142.638088 83.2213808,142.253624 L83.212285,142.123851 L83.2334471,141.995464 C83.3174853,141.61674 83.5834316,141.299959 83.9487496,141.153832 Z M63.8054439,142.065689 C62.9911709,140.708567 65.0268535,139.525932 65.7441893,140.863666 C65.9923352,141.218325 66.3007409,141.526731 66.6553996,141.774877 C67.0514254,141.914902 67.3411992,142.257557 67.4135104,142.671338 C67.4858215,143.085119 67.3294367,143.505744 67.0043738,143.771784 L67.0043738,143.771784 L66.8994207,143.854834 C66.6092641,144.059248 66.240991,144.126263 65.8939258,144.032555 C65.5034774,143.927134 65.1922158,143.632432 65.0656284,143.248323 C65.1625657,143.57791 64.8717539,143.228936 64.619717,143.073836 C64.2668957,142.812585 63.9866198,142.465577 63.8054439,142.065689 Z M95.0580191,138.866759 C95.3294435,139.215733 95.8722922,139.719807 95.949842,140.165718 C95.9798004,140.365465 96.0752763,140.549597 96.2212663,140.689179 C96.376366,140.941216 96.2212663,141.232028 96.4151409,141.464677 C97.1518641,142.802412 95.1161815,143.985046 94.4763955,142.647312 C94.3187585,142.364826 94.2136581,142.056094 94.1661963,141.736102 C93.9739463,141.317195 93.7469668,140.915118 93.4876354,140.53408 C92.4601003,139.351445 94.1274213,137.684124 95.0580191,138.866759 Z M79.877643,133.457659 L80.0139196,133.465363 C80.418089,133.511323 80.7755367,133.75994 80.957245,134.130773 C81.1591432,134.54281 81.1088549,135.033846 80.8276282,135.396405 C80.5412988,135.889733 80.3628843,136.438192 80.3041669,137.005563 C80.3041669,137.658714 79.7746834,138.188198 79.1215323,138.188198 C78.4683812,138.188198 77.9388976,137.658714 77.9388976,137.005563 L77.9388976,137.005563 L77.9388976,136.889238 C77.9758844,136.375463 78.0734995,135.867865 78.2297094,135.377017 C78.3654216,134.989268 78.6174585,134.679069 78.7531707,134.330095 C78.8970481,133.824787 79.3524327,133.471471 79.877643,133.457659 L79.877643,133.457659 Z M101.669141,132.701548 C102.054174,133.889477 102.333152,135.109197 102.502801,136.34639 C102.502801,137.877999 100.215082,137.877999 100.137532,136.34639 C99.9814511,135.318524 99.7349194,134.306447 99.4008087,133.321947 C99.0906095,131.829113 101.358942,131.208715 101.669141,132.701548 Z M70.8237021,131.111777 C69.7961671,129.909755 71.8512372,128.72712 72.7624475,129.909755 C72.8399973,130.02608 73.2277464,130.93729 72.956322,130.413829 L73.0481138,130.591116 C73.1067412,130.710584 73.1602082,130.83255 73.2083589,130.956678 C73.2810619,131.110162 73.3268378,131.213157 73.3414794,131.264263 L73.3441249,131.280526 L73.3992582,131.330674 C74.3286044,132.25991 73.3075742,133.876078 72.2924268,133.267187 L72.2002113,133.205622 C71.8004059,132.955395 71.4938787,132.580751 71.3277759,132.139312 C71.2308387,131.887275 71.1145139,131.654626 70.9981892,131.402589 C70.8801082,131.224729 70.8192249,131.01502 70.8237021,130.801578 C70.8126413,130.904682 70.8126413,131.008673 70.8237021,131.111777 Z M64.3289052,125.566966 C64.8277318,125.310553 65.4380597,125.439787 65.7901473,125.876375 C66.1422349,126.312964 66.1392347,126.936817 65.7829642,127.369999 C65.4570084,128.1921 65.2355523,129.05187 65.1237908,129.929143 C65.046241,131.441364 62.7585214,131.441364 62.7585214,129.929143 C62.8851633,128.973044 63.0795264,128.027143 63.340145,127.098574 C63.3941705,126.455258 63.7648705,125.881036 64.3289052,125.566966 Z M94.8253697,122.969047 C94.8253697,124.132294 94.1080339,125.217991 94.0304841,126.342464 C94.0319506,127.275997 93.4516689,128.111602 92.5764251,128.436309 C92.2204601,128.533065 91.8397338,128.458183 91.5469266,128.233824 C91.2541194,128.009465 91.08277,127.661329 91.0835911,127.292449 L91.0835911,126.9047 C91.0763285,126.471022 91.3278822,126.074634 91.7233771,125.896552 C91.7233771,125.663903 91.8590893,125.431253 91.9172516,125.198604 C92.1641107,124.473031 92.3457797,123.72689 92.4601003,122.969047 C92.5764251,121.456825 94.9416944,121.456825 94.8253697,122.969047 Z M78.4624914,122.376601 L78.598071,122.387423 C79.4181051,122.43541 80.2402435,122.43541 81.0602776,122.387423 C81.4827923,122.387423 81.873212,122.612832 82.0844693,122.97874 C82.2957266,123.344649 82.2957266,123.795467 82.0844693,124.161375 C81.873212,124.527284 81.4827923,124.752692 81.0602776,124.752692 C80.2402435,124.800679 79.4181051,124.800679 78.598071,124.752692 C77.1052371,124.558818 77.1052371,122.193549 78.598071,122.387423 Z M102.085971,117.298217 C102.755183,117.298217 103.297687,117.84072 103.297687,118.509932 C103.271624,118.866072 103.324586,119.22357 103.452787,119.556855 C103.995635,120.991526 101.707916,121.4956 101.165067,120.196641 C100.962443,119.657826 100.863765,119.085492 100.874255,118.509932 C100.874255,117.84072 101.416759,117.298217 102.085971,117.298217 Z M74.1777316,116.2416 C74.735763,116.273353 75.1953724,116.691444 75.2796585,117.243986 C75.3639447,117.796529 75.049891,118.332636 74.5267058,118.52932 C74.3428825,118.744774 74.1190269,118.922542 73.8675323,119.052781 C73.6930453,119.130331 73.3246836,119.207881 73.3246836,119.401755 C72.6461228,120.758877 70.6104401,119.576242 71.289001,118.199733 C71.6128324,117.659291 72.1023762,117.237739 72.6848977,116.997711 C72.9157516,116.873523 73.1361934,116.730884 73.3440711,116.571187 C73.5711745,116.361273 73.8684818,116.243733 74.1777316,116.2416 Z M85.3642923,112.305947 C84.666344,110.929438 86.7020266,109.727416 87.3030377,111.123313 C87.617857,111.546673 87.9823643,111.930708 88.3887351,112.267172 C88.7120356,112.683387 89.0617293,113.078411 89.4356576,113.449807 C90.6764546,114.322242 89.4938199,116.377313 88.3499602,115.48549 C87.7920031,115.01757 87.279216,114.498292 86.8183513,113.934493 C86.2397799,113.48339 85.7472244,112.931728 85.3642923,112.305947 Z M99.7885578,108.835593 C99.425936,109.240858 99.0082692,109.593264 98.5477608,109.882516 C98.256949,110.07639 97.6753254,110.328427 97.5396132,110.677401 C96.9967645,112.092685 94.7284324,111.491674 95.2712811,110.057003 C95.7947424,108.641719 97.2100265,108.118257 98.1212368,107.168272 C99.0324471,106.218287 100.874255,107.769283 99.7885578,108.835593 Z M78.9470452,105.481564 C80.1296799,104.531578 81.8163883,106.198899 80.4980415,107.226434 C79.9711502,107.588823 79.506316,108.034016 79.1215323,108.544781 C78.9201375,108.921805 78.5997911,109.221703 78.210322,109.397829 C77.0082998,109.804966 76.4460637,108.389682 77.0082998,107.575409 L77.0082998,107.575409 L77.1769231,107.302973 C77.6435277,106.588288 78.2443274,105.969532 78.9470452,105.481564 Z M87.8021693,97.946404 C87.9689712,97.3550154 88.5608777,96.9898843 89.1642332,97.1061837 C89.668307,97.2225084 90.1142185,97.8429069 90.6182922,97.8429069 C92.1111262,97.9980065 92.1305136,100.363276 90.6182922,100.208176 C90.1960118,100.192367 89.7809785,100.093549 89.3968827,99.9173644 C89.1288999,99.7020727 88.8359823,99.5198128 88.5244473,99.3745157 C87.9492447,99.1584013 87.6353673,98.5377927 87.8021693,97.946404 Z M97.0937017,88.5563166 C95.73658,87.9940805 96.9192147,85.9583979 98.2957239,86.6175713 C99.1099969,87.0828702 99.5365209,88.1297927 100.350794,88.5563166 C101.727303,89.2348775 100.525281,91.3674974 99.1681593,90.4175122 C98.7360552,90.1435987 98.3389198,89.8180779 97.9855246,89.4481395 L97.8867698,89.3485895 C97.647153,89.0906833 97.3481621,88.6750648 97.0937017,88.5563166 Z M102.646104,70.5783377 C103.097705,70.5808262 103.513412,70.8418373 103.708983,71.2569266 C103.922333,71.7097513 103.827487,72.2478507 103.472174,72.6004423 C103.239525,73.2208408 103.026263,73.8800143 102.774226,74.5391877 C102.211989,75.8575345 99.92427,75.3340733 100.486506,73.9187892 C100.816093,73.1045161 101.048742,72.2514682 101.378329,71.4565826 C101.529744,70.9482573 101.991919,70.5957513 102.522189,70.5841472 L102.522189,70.5841472 Z M142.111369,66.1638077 C142.671234,65.8567615 143.373741,66.0495884 143.698406,66.5994241 C144.023071,67.1492598 143.852643,67.8575342 143.313391,68.1994904 C143.798077,67.9086786 142.964417,68.5484645 142.964417,68.5484645 C142.822183,68.7517557 142.652556,68.9344308 142.460343,69.0913132 C142.0799,69.4254916 141.747199,69.8103807 141.471583,70.235173 C141.196513,70.6838972 140.658003,70.8968403 140.150433,70.7575954 C139.642863,70.6183505 139.288394,70.1604309 139.280801,69.6341619 L139.280801,69.6341619 L139.280801,69.4402874 C139.260018,69.0344088 139.480413,68.6544179 139.843037,68.4709147 C140.133849,68.1025531 140.463435,67.7729664 140.793022,67.4239922 C141.178581,66.9509492 141.621422,66.5276451 142.111369,66.1638077 Z M110.975119,67.9668409 C109.598609,67.3464424 110.800631,65.3107598 112.157753,65.9311583 C112.351628,66.0087081 112.56489,66.260745 112.758764,66.260745 C114.251598,66.4352321 114.270986,68.8005014 112.758764,68.6066269 C112.132204,68.4961786 111.529031,68.2798232 110.975119,67.9668409 Z M122.859628,60.3475717 C123.518801,58.8741252 125.554484,60.0761473 124.914698,61.5883687 C124.746177,62.1086343 124.654732,62.6507693 124.643273,63.1975273 C124.507561,63.4883391 124.507561,63.7985384 124.507561,64.0893502 L124.507561,64.0893502 L124.522272,64.2183906 C124.527176,64.3047664 124.522272,64.3915607 124.507561,64.4770993 L124.507561,64.4770993 L124.507561,64.6709738 C124.48499,65.193669 124.12692,65.6417343 123.62207,65.7790179 C123.117221,65.9163015 122.581554,65.7112701 122.297391,65.2719849 C121.85148,64.5158742 122.181067,63.6434388 122.297391,62.8097783 C122.349001,61.9638342 122.538931,61.1320708 122.859628,60.3475717 Z M130.633996,55.9660072 C130.876824,55.9481065 131.119553,56.0020461 131.331945,56.1211068 L131.331945,56.1211068 L131.44827,56.1211068 C131.982453,56.1401122 132.508422,56.2584553 132.999266,56.4700809 C133.336587,56.4350934 133.67088,56.5597371 133.902952,56.8070268 C134.135024,57.0543165 134.238213,57.3958429 134.1819,57.7302654 L134.1819,57.7302654 L134.171392,57.8676736 C134.122373,58.2296372 133.907833,58.5518268 133.586212,58.7356101 C133.224388,58.9423662 132.780453,58.9434311 132.417642,58.738413 C131.758469,58.3894388 130.944196,58.5833134 130.30441,58.2537267 C129.783109,58.059269 129.467852,57.5277375 129.547191,56.9770346 C129.626529,56.4263317 130.079005,56.0054057 130.633996,55.9660072 Z M144.340926,53.73645 C144.069502,52.2436161 146.337834,51.6038301 146.609258,53.096664 C146.71339,53.7343822 146.923061,54.3502906 147.229657,54.9190847 C147.635942,55.2200865 147.80592,55.7460872 147.652608,56.2279229 C147.499297,56.7097586 147.056617,57.040823 146.551096,57.0517046 C145.174587,57.0517046 144.534801,54.8221474 144.340926,53.73645 Z M134.782912,45.0314833 C135.616572,43.7712988 137.710417,44.9539335 136.818594,46.2335054 C136.507979,46.7484518 136.309769,47.323262 136.236971,47.9202139 C136.004321,49.4130478 133.716602,48.7732619 133.968638,47.2804279 C134.072609,46.4803199 134.350545,45.7126893 134.782912,45.0314833 Z" id="Combined-Shape" fill="#111111"></path>
            <path d="M223.616224,135.086205 L222.259102,133.670921 L214.96942,136.171903 L204.829781,139.487157 L188.54432,134.601519 L188.54432,134.601519 L151.708159,123.55067 C151.708159,123.55067 148.334742,110.541689 144.476638,96.8153719 C141.917494,87.6838812 139.106314,78.2034164 136.954306,72.0188187 C133.076816,61.1036824 106.360905,54.8415348 103.491561,90.8440362 C102.821316,98.3140547 102.957816,105.834544 103.898698,113.27532 C110.451657,161.046006 151.591834,159.805209 181.177088,152.476751 C186.469863,151.177792 202.40635,147.998249 203.685922,147.649275 C206.167516,149.239046 219.893833,149.588021 219.893833,149.588021 L228.812061,145.187069 L219.506084,139.080021 L223.616224,135.086205 Z" id="Path" fill="#875A3B"></path>
        </g>
        <g id="Group-8" transform="translate(939.500000, 757.500000) scale(-1, 1) translate(-939.500000, -757.500000) translate(872.000000, 616.000000)">
            <path d="M113.496363,31.0040284 C113.496363,30.6929997 122.557665,19.9106723 122.557665,19.9106723 L123.84325,12.5496603 L115.901651,16.3649454 L114.222096,12.528925 L112.604747,13.3375996 L111.277691,18.6043518 L109.204167,26.0690401 L103.439769,31.3772628 L79.9882066,51.2208924 C79.9882066,51.2208924 76.3180682,52.1747137 70.802493,53.9372095 C66.655444,55.2642652 61.409427,57.109702 55.9353223,59.3698437 C53.5092986,60.3858707 51.0418044,61.4433682 48.5950455,62.6252772 C45.6713759,65.569682 42.8928531,68.617763 40.3009475,71.8109908 L61.2642803,90.6178581 C71.4245504,83.3397871 81.9995254,81.4114093 88.2200989,74.7346603 C98.8572796,68.0993819 106.778143,51.9258907 110.842251,41.1642985 C111.402103,39.7750371 111.879014,38.4479814 112.272983,37.1623962 C113.848862,32.4554956 114.346508,29.697708 113.620774,30.9418227 L113.496363,31.0040284 Z" id="Path" fill="#875A3B"></path>
            <path d="M34.2047854,147.888605 C33.5619928,149.153455 32.9814059,150.459775 32.4422896,151.786831 C32.2971428,152.118595 32.1519961,152.450359 32.0275847,152.782123 C31.4884683,154.109179 30.9700872,155.45697 30.5139118,156.929172 C30.5139118,156.929172 30.5139118,156.929172 30.5139118,156.929172 C30.0577364,158.318433 29.6430315,159.72843 29.2283266,161.076221 C29.1246503,161.42872 29.0417094,161.781219 28.9380331,162.133718 C28.1293586,165.078123 27.4450955,168.084734 26.8645086,171.11208 C26.8645086,171.402373 26.8645086,171.671931 26.6986267,171.941489 C26.0765693,175.155452 25.5581882,178.34868 25.0605423,181.521173 C25.0702433,181.562076 25.0702433,181.604681 25.0605423,181.645584 C24.1481915,187.658805 23.4224579,193.485409 22.6552539,198.752161 C15.3979181,213.266833 6.81352661,244.7222 1.13206945,274.601688 C4.38750293,275.866538 7.35264298,278.56212 8.86631587,278.209621 C8.86631587,278.085209 8.86631587,271.118167 11.2508691,267.448028 C21.7843736,251.896595 52.3895953,212.230071 73.4566044,162.050777 C68.5630865,159.230784 41.9597671,152.284477 34.2047854,147.888605 Z" id="Path" fill="#875A3B"></path>
            <path d="M57.6148771,245.59308 C62.2803073,227.221653 70.0560242,183.387345 70.0560242,183.387345 C71.4038151,173.28928 72.5649888,162.817982 73.3943986,152.284477 C73.3943986,152.160066 73.3943986,152.056389 73.3943986,151.911243 C73.6639568,148.406986 73.9127798,144.861259 74.099397,141.336268 C68.5423513,140.27877 36.1746337,142.580382 27.403625,141.066709 C27.403625,143.140234 27.403625,144.964936 27.403625,146.831108 C27.403625,147.245812 27.403625,147.639782 27.403625,148.033752 C27.403625,149.858453 27.5902422,151.641684 27.7353889,153.36271 L27.7353889,153.943297 C27.8598004,155.581381 28.0464176,157.15726 28.2330348,158.691668 C28.2330348,158.940491 28.2330348,159.189314 28.2330348,159.417401 C28.4611225,161.076221 28.7099454,162.69357 29.0002389,164.269449 C29.0002389,164.456066 29.0002389,164.642683 29.0002389,164.8293 C29.601561,168.084734 30.3272946,171.195021 31.0737634,174.160161 C31.0737634,174.284572 31.0737634,174.388248 31.0737634,174.491925 C31.9446437,177.581476 32.9192002,180.546616 34.0181682,183.470286 L34.0181682,183.470286 C35.2415476,186.684249 36.5686033,189.856741 37.9993352,193.049969 C36.0709575,209.161254 37.5431599,244.76367 42.1463843,274.809075 C44.9041043,274.815153 47.6046568,274.022991 49.9221012,272.528163 L57.6148771,245.59308 Z" id="Path" fill="#724C33"></path>
            <path d="M72.3783716,282.128582 L70.885434,277.629034 L50.5441585,272.383017 L50.5441585,272.383017 C48.2235587,273.87338 45.5263758,274.671746 42.7684416,274.684629 L41.7524146,282.045641 L72.3783716,282.128582 Z" id="Path" fill="#222222"></path>
            <polygon id="Path" fill="#222222" points="1.02839322 274.663894 0.0123662101 282.024906 30.5553823 282.128582 29.0624446 277.629034 9.32249126 272.528163"></polygon>
            <path d="M48.8438684,34.5497553 L55.8938518,33.4300521 L51.9748904,25.4884532 L54.5253256,23.6015459 L44.9663776,12.611866 C44.0788248,16.2073271 41.9674431,19.381731 38.994627,21.5902271 C37.8397769,21.1496474 36.5400842,21.3272208 35.5457434,22.0614387 C34.5514027,22.7956566 33.9991863,23.9855265 34.0803739,25.218895 C34.4536083,27.9144769 37.7919828,28.6194752 37.7919828,28.6194752 L36.7552205,38.240629 L43.4941752,47.3019311 L43.4941752,47.3019311 L41.5657974,51.7600088 C46.3349038,55.2435299 50.0257774,59.6394019 61.4508975,54.5385316 L48.8438684,34.5497553 Z" id="Path" fill="#875A3B"></path>
            <path d="M80.1540885,203.230974 C83.1399638,159.29299 72.2124897,73.5942219 61.492368,54.5385316 C49.0512209,54.5385316 46.2104923,54.0201505 43.2453523,48.9192802 L42.374472,49.7901605 C42.374472,49.7901605 16.1443869,92.6706474 17.9898237,201.15745 C38.3927107,205.781014 59.4884509,206.484675 80.1540885,203.230974 L80.1540885,203.230974 Z" id="Path" fill="#FFC729"></path>
            <path d="M125.854569,45.2906123 L126.455891,49.4376613 L134.065726,46.6384032 L132.780141,53.7713275 C132.780141,53.7713275 126.559567,61.6092502 124.486043,62.3764543 C124.133543,63.2680698 119.094879,73.946721 117.560471,77.6168594 C109.05902,98.1032816 91.9109725,122.633077 61.1813393,105.796058 C61.1838853,105.782707 61.1864335,105.769357 61.1889837,105.756007 L60.3353933,105.26701 C55.916235,102.696024 51.7673448,99.6847264 47.9522529,96.27858 C28.1500938,78.9439151 43.4319695,66.0880631 51.4565093,68.5762926 C55.997528,70.0070245 62.7572179,72.4745186 69.2058791,74.9212776 L69.2058791,74.9212776 L70.9061692,75.5640702 C70.9012615,75.5747176 70.8963552,75.5853657 70.8914504,75.5960144 C79.508977,78.9037497 87.1721649,82.0008656 87.822898,82.2641925 L87.8675997,82.2822896 L110.365341,65.569682 L120.276788,58.1671995 L122.723547,50.8269227 L124.423837,45.4772295 L125.854569,45.2906123 Z" id="Combined-Shape" fill="#875A3B"></path>
            <path d="M36.029487,39.4018027 C39.5255319,43.6951348 45.1250026,45.6789472 50.5441585,44.5441435 C58.6309041,42.470619 63.2963343,33.2641701 60.9117811,23.8088984 C58.5272279,14.3536266 50.1294536,8.29893503 42.0219728,10.2895186 C38.0244739,11.3299655 34.6920147,14.085507 32.9192002,17.8164125 C30.9135882,21.9188496 30.4357374,26.6017874 31.5714093,31.0247637 C32.35652,34.1371619 33.8864733,37.0120508 36.029487,39.4018027 L36.029487,39.4018027 Z" id="Path" fill="#875A3B"></path>
            <path d="M38.6421278,29.2000621 C41.358445,12.9021594 55.8109108,15.1830364 55.8109108,14.6853905 C54.4663523,11.552961 51.8953977,9.10942986 48.6987217,7.92570062 C47.9522529,6.22541052 44.2613793,-1.07339576 37.5846303,0.7927763 C34.4619786,1.68354744 31.9370554,3.985909 30.7627347,7.01334983 C30.7627347,7.01334983 23.5053989,2.65894836 19.0680565,9.23202106 C13.9257157,16.841856 21.6806973,21.154787 21.6806973,21.154787 C21.6806973,21.154787 14.9210074,20.3046419 16.4968861,31.3357923 C18.0727647,42.3669427 26.2424513,38.6138634 26.2424513,38.6138634 C26.2424513,38.6138634 23.6090751,43.5281165 29.7052372,46.9079614 C36.5686033,50.681776 41.5657974,43.486646 41.5657974,43.486646 C39.4729239,41.5568749 37.873089,39.1535674 36.9003673,36.4781331 C36.9003673,36.2500454 37.0040435,36.042693 37.0662492,35.79387 C36.4856624,34.9022545 36.0502222,34.1143152 35.6769878,33.4093169 C35.2415476,32.2688784 34.847578,31.1077046 34.4950788,29.9672662 C34.5158141,27.9559474 36.9833082,28.5572695 38.6421278,29.2000621 Z" id="Path" fill="#36231D"></path>
        </g>
    </g>
</svg>