<?xml version="1.0" encoding="UTF-8"?>
<svg width="26px" height="26px" viewBox="0 0 26 26" version="1.1" xmlns="http://www.w3.org/2000/svg" xmlns:xlink="http://www.w3.org/1999/xlink">
    <!-- Generator: Sketch 62 (91390) - https://sketch.com -->
    <title>Cregital_</title>
    <desc>Created with Sketch.</desc>
    <g id="Website" stroke="none" stroke-width="1" fill="none" fill-rule="evenodd">
        <g id="Project-1-Copy-2" transform="translate(-44.000000, -404.000000)" fill="#FFFFFF">
            <path d="M69.8349941,404.9 L69.8349941,429.9 L44.8349941,429.9 L44.8349941,404.9 L69.8349941,404.9 Z M58.2686877,411.4 C56.4125323,411.4 54.8762112,411.993595 53.6599311,413.180579 C52.4432375,414.367975 51.8349941,415.85186 51.8349941,417.632438 C51.8349941,419.413223 52.4318666,420.88595 53.6256114,422.050207 C54.8189428,423.214463 56.321151,423.796694 58.1316158,423.796694 C59.9418739,423.796694 61.4812962,423.094421 62.7492625,421.690496 L62.7492625,421.690496 L61.4469765,420.354959 C60.8986892,420.868595 60.3731437,421.242769 59.8707537,421.476446 C59.3679502,421.710744 58.76839,421.827479 58.0716598,421.827479 C56.9521364,421.827479 55.9839502,421.419421 55.1675147,420.603306 C54.3506657,419.78719 53.9425513,418.771074 53.9425513,417.555579 C53.9425513,416.339669 54.3537669,415.340909 55.1759912,414.559091 C55.9984223,413.777273 57.0149868,413.386157 58.2258915,413.386157 C58.9112507,413.386157 59.5081232,413.494628 60.0163021,413.711364 C60.5244809,413.928306 61.0640851,414.310744 61.6355279,414.858471 L61.6355279,414.858471 L62.920654,413.454545 C61.6754296,412.084711 60.1248431,411.4 58.2686877,411.4 Z M51.0925411,409.178306 L49.0250924,409.178306 L49.0250924,411.244421 L51.0925411,411.244421 L51.0925411,409.178306 Z" id="Cregital_"></path>
        </g>
    </g>
</svg>