<svg xmlns="http://www.w3.org/2000/svg" viewBox="0 0 46.95 46.94"><defs><style>.cls-1{fill:#231f20;}.cls-2{fill:#fff;}</style></defs><g id="Layer_2" data-name="Layer 2"><g id="Layer_1-2" data-name="Layer 1"><rect class="cls-1" width="46.95" height="46.94"/><path class="cls-2" d="M23.48,19a3.1,3.1,0,1,1-2.18,5.28A3.1,3.1,0,0,1,23.48,19Z"/><path class="cls-2" d="M37.41,12.45a14.19,14.19,0,0,0-5.78-6.24,16.59,16.59,0,0,0-8.15-2,16.64,16.64,0,0,0-8.12,2,14,14,0,0,0-5.81,6.24Q7.37,16.7,7.38,23.5t2.17,11a14.07,14.07,0,0,0,5.81,6.2,16.21,16.21,0,0,0,6.24,1.89v4.32h3.76V42.62a16,16,0,0,0,6.27-1.89,14.24,14.24,0,0,0,5.78-6.2q2.16-4.22,2.16-11A24.42,24.42,0,0,0,37.41,12.45ZM30.1,37.15a8.15,8.15,0,0,1-4.74,3.9V29.32a11.69,11.69,0,0,1-2,.44,17.28,17.28,0,0,1-2.32.15c-.83,0-1.69-.05-2.58-.13v.88a3,3,0,0,1,2.5.89,4.65,4.65,0,0,1,.67,2.78v6.72a8.14,8.14,0,0,1-4.75-3.9Q14.26,33,14.26,23.5T16.85,9.82q2.58-4.19,6.63-4.18T30.1,9.82Q32.69,14,32.69,23.5T30.1,37.15Z"/></g></g></svg>