<svg width="25" height="25" viewBox="0 0 25 25" fill="none" xmlns="http://www.w3.org/2000/svg">
<path fill-rule="evenodd" clip-rule="evenodd" d="M0 0H25V25H0V0ZM12.5 20C11.5329 20 10.6495 19.8358 9.84978 19.5074C9.05007 19.179 8.36195 18.7123 7.78541 18.1074C7.22747 17.4852 6.79041 16.7506 6.47425 15.9037C6.15808 15.0395 6 14.0716 6 13C6 11.9457 6.15808 10.9864 6.47425 10.1222C6.79041 9.25802 7.22747 8.52346 7.78541 7.91852C8.36195 7.2963 9.05007 6.82099 9.84978 6.49259C10.6495 6.1642 11.5329 6 12.5 6C13.4671 6 14.3412 6.1642 15.1223 6.49259C15.922 6.82099 16.6102 7.2963 17.1867 7.91852C17.7632 8.52346 18.2096 9.25802 18.5258 10.1222C18.8419 10.9864 19 11.9457 19 13C19 14.0716 18.8419 15.0395 18.5258 15.9037C18.2096 16.7506 17.7632 17.4852 17.1867 18.1074C16.6102 18.7123 15.922 19.179 15.1223 19.5074C14.3412 19.8358 13.4671 20 12.5 20ZM12.5 18.1593C13.7089 18.1593 14.6946 17.8136 15.4571 17.1222C16.2196 16.4309 16.6009 15.3765 16.6009 13.9593V12.0407C16.6009 10.6235 16.2196 9.56914 15.4571 8.87778C14.6946 8.18642 13.7089 7.84074 12.5 7.84074C11.2911 7.84074 10.3054 8.18642 9.54292 8.87778C8.7804 9.56914 8.39914 10.6235 8.39914 12.0407V13.9593C8.39914 15.3765 8.7804 16.4309 9.54292 17.1222C10.3054 17.8136 11.2911 18.1593 12.5 18.1593ZM3 3C2.44772 3 2 3.44772 2 4C2 4.55228 2.44772 5 3 5C3.55228 5 4 4.55228 4 4C4 3.44772 3.55228 3 3 3Z" fill="white"/>
</svg>
