<svg width="25" height="25" viewBox="0 0 25 25" fill="none" xmlns="http://www.w3.org/2000/svg">
<path fill-rule="evenodd" clip-rule="evenodd" d="M0 0H25V25H0V0ZM12.5 20C11.533 20 10.6494 19.8357 9.84985 19.5073C9.05005 19.179 8.36206 18.7124 7.7854 18.1074C7.22754 17.4851 6.79053 16.7507 6.47437 15.9038C6.1582 15.0396 6 14.0715 6 13C6 11.9458 6.1582 10.9863 6.47437 10.1223C6.65161 9.6377 6.86694 9.19385 7.12012 8.79077C7.24951 8.58521 7.38843 8.39014 7.53735 8.20557C7.61719 8.10693 7.69995 8.01123 7.7854 7.91846C8.36206 7.29639 9.05005 6.82104 9.84985 6.49268C10.6494 6.16431 11.533 6 12.5 6C13.467 6 14.3413 6.16431 15.1223 6.49268C15.9221 6.82104 16.6101 7.29639 17.1868 7.91846C17.7632 8.52344 18.2095 9.25806 18.5256 10.1223C18.8418 10.9863 19 11.9458 19 13C19 13.6619 18.9397 14.2844 18.8191 14.8674C18.7444 15.228 18.6465 15.5735 18.5256 15.9038C18.2095 16.7507 17.7632 17.4851 17.1868 18.1074C16.6101 18.7124 15.9221 19.179 15.1223 19.5073C14.3413 19.8357 13.467 20 12.5 20ZM12.5 18.1592C13.709 18.1592 14.6946 17.8135 15.457 17.1223C16.2195 16.4309 16.6008 15.3765 16.6008 13.9592V12.0408C16.6008 10.6235 16.2195 9.56909 15.457 8.87769C14.6946 8.18652 13.709 7.84082 12.5 7.84082C11.291 7.84082 10.3054 8.18652 9.54297 8.87769C8.78052 9.56909 8.39917 10.6235 8.39917 12.0408V13.9592C8.39917 15.3765 8.78052 16.4309 9.54297 17.1223C10.3054 17.8135 11.291 18.1592 12.5 18.1592ZM3 3C2.44775 3 2 3.44775 2 4C2 4.55225 2.44775 5 3 5C3.55225 5 4 4.55225 4 4C4 3.44775 3.55225 3 3 3Z" fill="black"/>
</svg>
